<svg xmlns="http://www.w3.org/2000/svg" width="204.235" height="34.131" viewBox="0 0 204.235 34.131">
  <g id="Group_339" data-name="Group 339" transform="translate(0 0)">
    <g id="Group_337" data-name="Group 337" transform="translate(37.653 2.247)">
      <path id="Path_42" data-name="Path 42" d="M73.053,33.4A11.017,11.017,0,0,1,62,22.526V11.777A8.113,8.113,0,0,1,70.077,3.7h10.2V7.526h-10.2a3.849,3.849,0,0,0-3.826,3.826v11.6a6.846,6.846,0,0,0,6.8,6.68H80.28v3.826H73.053Z" transform="translate(-62 -3.7)" fill="#0e1e24"/>
      <path id="Path_43" data-name="Path 43" d="M97.4,3.7h4.251L112.7,24.713V3.7h4.251V33.4H112.7L101.651,12.384V33.4H97.4Z" transform="translate(-75.902 -3.7)" fill="#0e1e24"/>
      <path id="Path_44" data-name="Path 44" d="M134.689,33.4V29.571h9.352a5.293,5.293,0,0,0,5.1-5.284,5.1,5.1,0,0,0-3.947-4.98l-5.587-1.154a7.083,7.083,0,0,1-5.709-7.227A7.362,7.362,0,0,1,141.309,3.7h10.446V7.526h-10.2a3.357,3.357,0,0,0-3.4,3.4,3.357,3.357,0,0,0,2.551,3.34l5.526,1.154a9.119,9.119,0,0,1-1.7,18.037h-9.838Z" transform="translate(-90.235 -3.7)" fill="#0e1e24"/>
    </g>
    <path id="Path_45" data-name="Path 45" d="M20.345,4.555a12.912,12.912,0,0,1,9.231,9.231,3.314,3.314,0,0,0-3.219,2.672H20.284a3.011,3.011,0,0,0-.486-1.215l2.186-2.186a1.681,1.681,0,0,0,.789.182,1.822,1.822,0,1,0-1.822-1.822,1.681,1.681,0,0,0,.182.789l-2.186,2.186a3.011,3.011,0,0,0-1.215-.486V7.834A3.444,3.444,0,0,0,20.345,4.555ZM7.773,16.458h6.073a3.011,3.011,0,0,1,.486-1.215l-2.186-2.186a1.681,1.681,0,0,1-.789.182,1.827,1.827,0,0,1-1.822-1.822,1.681,1.681,0,0,1,.182-.789h0a1.919,1.919,0,0,1,.85-.85h0a1.681,1.681,0,0,1,.789-.182,1.827,1.827,0,0,1,1.822,1.822,1.681,1.681,0,0,1-.182.789l2.186,2.186a3.011,3.011,0,0,1,1.215-.486V7.834a3.264,3.264,0,0,1-2.672-3.219,12.754,12.754,0,0,0-9.17,9.17A3.314,3.314,0,0,1,7.773,16.458Zm8.684,9.96V20.284a3.011,3.011,0,0,1-1.215-.486l-2.186,2.186a1.681,1.681,0,0,1,.182.789,1.822,1.822,0,1,1-1.822-1.822,1.681,1.681,0,0,1,.789.182l2.186-2.186a3.011,3.011,0,0,1-.486-1.215H7.834a3.314,3.314,0,0,1-3.219,2.672,12.912,12.912,0,0,0,9.231,9.231A3.157,3.157,0,0,1,16.458,26.418Zm9.96-8.745H20.345a3.011,3.011,0,0,1-.486,1.215l2.186,2.186a1.681,1.681,0,0,1,.789-.182,1.827,1.827,0,0,1,1.822,1.822,1.681,1.681,0,0,1-.182.789h0a1.919,1.919,0,0,1-.85.85h0a1.681,1.681,0,0,1-.789.182,1.827,1.827,0,0,1-1.822-1.822,1.681,1.681,0,0,1,.182-.789l-2.186-2.186a3.011,3.011,0,0,1-1.215.486v6.134a3.314,3.314,0,0,1,2.672,3.219,12.935,12.935,0,0,0,9.17-9.231A3.264,3.264,0,0,1,26.418,17.672Zm7.773-.607A17.1,17.1,0,1,0,17.065,34.13,17.093,17.093,0,0,0,34.191,17.065Zm-2.065,0A15.061,15.061,0,1,1,17.065,2,15.058,15.058,0,0,1,32.126,17.065Z" transform="translate(0 0)" fill="#8dc63f"/>
    <g id="Group_338" data-name="Group 338" transform="translate(105.488 13.968)">
      <path id="Path_46" data-name="Path 46" d="M176.372,30.448a2.7,2.7,0,0,1-2.672-2.672V25.043a1.918,1.918,0,0,1,1.943-1.943h2.49v.729H175.7a1.129,1.129,0,0,0-1.093,1.093V27.9a1.827,1.827,0,0,0,1.822,1.822h1.761v.729Z" transform="translate(-173.7 -23.039)" fill="#0e1e24"/>
      <path id="Path_47" data-name="Path 47" d="M185.6,31.3a1.806,1.806,0,0,1-1.215.486h-.425a1.426,1.426,0,0,1-1.458-1.4V26.561h.85v3.887a.609.609,0,0,0,.607.607h.425A1.168,1.168,0,0,0,185.6,29.9V26.5h.85v5.709a2.035,2.035,0,0,1-2.065,2h-1.215v-.729h1.215a1.218,1.218,0,0,0,1.215-1.215Z" transform="translate(-177.156 -24.374)" fill="#0e1e24"/>
      <path id="Path_48" data-name="Path 48" d="M190.9,23.1h.85v2.126h1.64a1.426,1.426,0,0,1,1.458,1.4v1.822a2.048,2.048,0,0,1-2.065,2.065H190.9Zm3.1,3.4a.609.609,0,0,0-.607-.607h-1.64V29.72h1.032A1.218,1.218,0,0,0,194,28.5Z" transform="translate(-180.454 -23.039)" fill="#0e1e24"/>
      <path id="Path_49" data-name="Path 49" d="M202.744,31.784H201.1a2,2,0,0,1-2-2.065V27.9a1.426,1.426,0,0,1,1.458-1.4h.972a1.389,1.389,0,0,1,1.458,1.4,1.493,1.493,0,0,1-1.154,1.4l-1.883.486v.061a1.207,1.207,0,0,0,1.154,1.215h1.64v.729Zm-2.854-2.733,1.7-.425a.614.614,0,0,0,.486-.668.665.665,0,0,0-.607-.668H200.5a.624.624,0,0,0-.607.668Z" transform="translate(-183.675 -24.374)" fill="#0e1e24"/>
      <path id="Path_50" data-name="Path 50" d="M207.2,26.5h.547l.3.486A1.555,1.555,0,0,1,209.2,26.5h1.275v.729H209.2a1.153,1.153,0,0,0-1.154,1.154v3.4h-.85Z" transform="translate(-186.855 -24.374)" fill="#0e1e24"/>
      <path id="Path_51" data-name="Path 51" d="M214.1,23.1h.85v1.032h-.85Zm0,2.065h.85v5.284h-.85Z" transform="translate(-189.565 -23.039)" fill="#0e1e24"/>
      <path id="Path_52" data-name="Path 52" d="M218.25,31.784h-.85V26.5h.547l.3.486a1.7,1.7,0,0,1,1.215-.486h.425a1.426,1.426,0,0,1,1.458,1.4v3.826h-.85V27.775a.609.609,0,0,0-.607-.607h-.425a1.218,1.218,0,0,0-1.215,1.215Z" transform="translate(-190.861 -24.374)" fill="#0e1e24"/>
      <path id="Path_53" data-name="Path 53" d="M226.65,24.458v.668h1.4v.729h-1.4v4.555h-.85V24.458A1.478,1.478,0,0,1,227.258,23h.729v.729h-.729A.781.781,0,0,0,226.65,24.458Z" transform="translate(-194.16 -23)" fill="#0e1e24"/>
      <path id="Path_54" data-name="Path 54" d="M231.1,26.5h.547l.3.486A1.555,1.555,0,0,1,233.1,26.5h1.275v.729H233.1a1.153,1.153,0,0,0-1.154,1.154v3.4h-.85Z" transform="translate(-196.241 -24.374)" fill="#0e1e24"/>
      <path id="Path_55" data-name="Path 55" d="M237.925,27.229V26.5h2.065a1.374,1.374,0,0,1,1.4,1.4v3.887H238.9a1.388,1.388,0,0,1-1.4-1.458,1.553,1.553,0,0,1,1.154-1.4l1.883-.425v-.668a.609.609,0,0,0-.607-.607Zm1.032,3.826h1.64V29.233l-1.7.425a.658.658,0,0,0-.486.668A.575.575,0,0,0,238.958,31.055Z" transform="translate(-198.754 -24.374)" fill="#0e1e24"/>
      <path id="Path_56" data-name="Path 56" d="M246.754,29.394a1.409,1.409,0,0,1,.3-2.794h2.126v.729h-2.126a.624.624,0,0,0-.607.668.614.614,0,0,0,.486.668l1.4.364a1.481,1.481,0,0,1,1.154,1.4,1.426,1.426,0,0,1-1.458,1.4h-2.308v-.729h2.308a.624.624,0,0,0,.607-.668.613.613,0,0,0-.547-.668Z" transform="translate(-201.935 -24.414)" fill="#0e1e24"/>
      <path id="Path_57" data-name="Path 57" d="M255.865,29.72v.729h-.607a1.39,1.39,0,0,1-1.458-1.4V23.1h.85v2.126h1.275v.729H254.65v3.1a.665.665,0,0,0,.607.668Z" transform="translate(-205.155 -23.039)" fill="#0e1e24"/>
      <path id="Path_58" data-name="Path 58" d="M258.8,26.5h.547l.3.486A1.555,1.555,0,0,1,260.8,26.5h1.275v.729H260.8a1.153,1.153,0,0,0-1.154,1.154v3.4h-.85Z" transform="translate(-207.119 -24.374)" fill="#0e1e24"/>
      <path id="Path_59" data-name="Path 59" d="M268.8,26.5h.85v5.284H269.1l-.3-.486a1.7,1.7,0,0,1-1.215.486h-.425a1.426,1.426,0,0,1-1.458-1.4V26.561h.85v3.887a.609.609,0,0,0,.607.607h.425A1.218,1.218,0,0,0,268.8,29.84Z" transform="translate(-209.828 -24.374)" fill="#0e1e24"/>
      <path id="Path_60" data-name="Path 60" d="M275.843,31.784A1.919,1.919,0,0,1,273.9,29.84V27.9a1.389,1.389,0,0,1,1.458-1.4h2.126v.729h-2.126a.609.609,0,0,0-.607.607v2.126a1.089,1.089,0,0,0,1.093,1.093h1.64v.729Z" transform="translate(-213.048 -24.374)" fill="#0e1e24"/>
      <path id="Path_61" data-name="Path 61" d="M283.565,29.72v.729h-.607a1.39,1.39,0,0,1-1.458-1.4V23.1h.85v2.126h1.275v.729H282.35v3.1a.665.665,0,0,0,.607.668Z" transform="translate(-216.033 -23.039)" fill="#0e1e24"/>
      <path id="Path_62" data-name="Path 62" d="M289.5,26.5h.85v5.284H289.8l-.3-.486a1.7,1.7,0,0,1-1.215.486h-.425a1.426,1.426,0,0,1-1.458-1.4V26.561h.85v3.887a.609.609,0,0,0,.607.607h.425A1.218,1.218,0,0,0,289.5,29.84Z" transform="translate(-217.957 -24.374)" fill="#0e1e24"/>
      <path id="Path_63" data-name="Path 63" d="M294.9,26.5h.547l.3.486A1.555,1.555,0,0,1,296.9,26.5h1.275v.729H296.9a1.153,1.153,0,0,0-1.154,1.154v3.4h-.85Z" transform="translate(-221.295 -24.374)" fill="#0e1e24"/>
      <path id="Path_64" data-name="Path 64" d="M305.4,31.784h-1.7a2,2,0,0,1-2-2.065V27.9a1.426,1.426,0,0,1,1.458-1.4h.972a1.389,1.389,0,0,1,1.457,1.4,1.493,1.493,0,0,1-1.154,1.4l-1.883.486v.061a1.207,1.207,0,0,0,1.154,1.215h1.64v.729Zm-2.854-2.733,1.7-.425a.614.614,0,0,0,.486-.668.665.665,0,0,0-.607-.668h-.972a.624.624,0,0,0-.607.668Z" transform="translate(-223.965 -24.374)" fill="#0e1e24"/>
      <path id="Path_65" data-name="Path 65" d="M314.55,24.458v.668h1.4v.729h-1.4v4.555h-.85V24.458A1.478,1.478,0,0,1,315.158,23h.729v.729h-.729A.721.721,0,0,0,314.55,24.458Z" transform="translate(-228.678 -23)" fill="#0e1e24"/>
      <path id="Path_66" data-name="Path 66" d="M320.34,31.784a1.633,1.633,0,0,1-1.64-1.64V27.9a1.374,1.374,0,0,1,1.4-1.4h1.154a1.374,1.374,0,0,1,1.4,1.4v2.247a1.633,1.633,0,0,1-1.64,1.64Zm.79-.729a.8.8,0,0,0,.789-.789V27.836a.609.609,0,0,0-.607-.607h-1.154a.609.609,0,0,0-.607.607v2.429a.8.8,0,0,0,.789.789Z" transform="translate(-230.641 -24.374)" fill="#0e1e24"/>
      <path id="Path_67" data-name="Path 67" d="M327.1,26.5h.547l.3.486A1.555,1.555,0,0,1,329.1,26.5h1.275v.729H329.1a1.153,1.153,0,0,0-1.154,1.154v3.4h-.85Z" transform="translate(-233.94 -24.374)" fill="#0e1e24"/>
      <path id="Path_68" data-name="Path 68" d="M173.9,40.4h.85l3.036,5.709V40.4h.85v7.409h-.85L174.75,42.1v5.709h-.85Z" transform="translate(-173.779 -29.833)" fill="#0e1e24"/>
      <path id="Path_69" data-name="Path 69" d="M187.244,49.184H185.6a2,2,0,0,1-2-2.065V45.3a1.426,1.426,0,0,1,1.458-1.4h.972a1.389,1.389,0,0,1,1.458,1.4,1.493,1.493,0,0,1-1.154,1.4l-1.883.486v.061a1.207,1.207,0,0,0,1.154,1.215h1.64v.729Zm-2.854-2.733,1.7-.425a.614.614,0,0,0,.486-.668.665.665,0,0,0-.607-.668h-.911a.624.624,0,0,0-.607.668v1.093Z" transform="translate(-177.588 -31.207)" fill="#0e1e24"/>
      <path id="Path_70" data-name="Path 70" d="M193.765,47.12v.729h-.607a1.39,1.39,0,0,1-1.458-1.4V40.5h.85v2.126h1.275v.729H192.49v3.1a.665.665,0,0,0,.607.668Z" transform="translate(-180.769 -29.872)" fill="#0e1e24"/>
      <path id="Path_71" data-name="Path 71" d="M199.74,43.9h.85l1.215,3.947L203.02,43.9h.911l-1.7,5.284h-.85l-1.215-3.765-1.215,3.765h-.85L196.4,43.9h.911l1.215,3.947Z" transform="translate(-182.614 -31.207)" fill="#0e1e24"/>
      <path id="Path_72" data-name="Path 72" d="M211.44,49.184a1.633,1.633,0,0,1-1.64-1.64V45.3a1.374,1.374,0,0,1,1.4-1.4h1.154a1.374,1.374,0,0,1,1.4,1.4v2.247a1.633,1.633,0,0,1-1.64,1.64Zm.789-.729a.8.8,0,0,0,.79-.789V45.236a.609.609,0,0,0-.607-.607h-1.154a.609.609,0,0,0-.607.607v2.429a.8.8,0,0,0,.789.789Z" transform="translate(-187.876 -31.207)" fill="#0e1e24"/>
      <path id="Path_73" data-name="Path 73" d="M218.3,43.9h.547l.3.486A1.555,1.555,0,0,1,220.3,43.9h1.275v.729H220.3a1.153,1.153,0,0,0-1.154,1.154v3.4h-.85Z" transform="translate(-191.214 -31.207)" fill="#0e1e24"/>
      <path id="Path_74" data-name="Path 74" d="M225.3,40.4h.85v7.409h-.85Zm3.34,2.126h1.093l-2.551,2.611,2.551,2.611H228.64l-2.49-2.611Z" transform="translate(-193.963 -29.833)" fill="#0e1e24"/>
      <path id="Path_75" data-name="Path 75" d="M237.682,47.848V47.12h2.247a1.478,1.478,0,0,0,1.458-1.458,1.456,1.456,0,0,0-1.032-1.4l-1.458-.3a1.749,1.749,0,0,1,.364-3.462h2.551v.729h-2.49a1.024,1.024,0,0,0-1.032,1.032.985.985,0,0,0,.729.972l1.4.3a2.168,2.168,0,0,1,1.761,2.186,2.242,2.242,0,0,1-2.247,2.247h-2.247Z" transform="translate(-198.754 -29.872)" fill="#0e1e24"/>
      <path id="Path_76" data-name="Path 76" d="M248.743,49.184A1.919,1.919,0,0,1,246.8,47.24V45.3a1.39,1.39,0,0,1,1.458-1.4h2.126v.729h-2.126a.609.609,0,0,0-.607.607v2.126a1.089,1.089,0,0,0,1.093,1.093h1.64v.729Z" transform="translate(-202.406 -31.207)" fill="#0e1e24"/>
      <path id="Path_77" data-name="Path 77" d="M254.3,40.4h.85v1.032h-.85Zm0,2.126h.85v5.284h-.85Z" transform="translate(-205.352 -29.833)" fill="#0e1e24"/>
      <path id="Path_78" data-name="Path 78" d="M261.244,49.184H259.6a2,2,0,0,1-2-2.065V45.3a1.426,1.426,0,0,1,1.458-1.4h.972a1.39,1.39,0,0,1,1.458,1.4,1.493,1.493,0,0,1-1.154,1.4l-1.883.486v.061a1.207,1.207,0,0,0,1.154,1.215h1.64Zm-2.854-2.733,1.7-.425a.614.614,0,0,0,.486-.668.665.665,0,0,0-.607-.668H259a.624.624,0,0,0-.607.668v1.093Z" transform="translate(-206.647 -31.207)" fill="#0e1e24"/>
      <path id="Path_79" data-name="Path 79" d="M266.45,49.184h-.85V43.9h.547l.3.486a1.7,1.7,0,0,1,1.215-.486h.425a1.426,1.426,0,0,1,1.458,1.4v3.826h-.85V45.175a.609.609,0,0,0-.607-.607h-.425a1.218,1.218,0,0,0-1.215,1.215Z" transform="translate(-209.789 -31.207)" fill="#0e1e24"/>
      <path id="Path_80" data-name="Path 80" d="M275.743,49.184A1.919,1.919,0,0,1,273.8,47.24V45.3a1.39,1.39,0,0,1,1.458-1.4h2.126v.729h-2.126a.609.609,0,0,0-.607.607v2.126a1.089,1.089,0,0,0,1.093,1.093h1.64v.729Z" transform="translate(-213.009 -31.207)" fill="#0e1e24"/>
      <path id="Path_81" data-name="Path 81" d="M284.844,49.184H283.2a2,2,0,0,1-2-2.065V45.3a1.426,1.426,0,0,1,1.457-1.4h.972a1.389,1.389,0,0,1,1.457,1.4,1.493,1.493,0,0,1-1.154,1.4l-1.883.486v.061a1.207,1.207,0,0,0,1.154,1.215h1.64Zm-2.854-2.733,1.7-.425a.614.614,0,0,0,.486-.668.665.665,0,0,0-.607-.668H282.6a.624.624,0,0,0-.607.668v1.093Z" transform="translate(-215.915 -31.207)" fill="#0e1e24"/>
      <path id="Path_82" data-name="Path 82" d="M295.572,47.848a2.7,2.7,0,0,1-2.672-2.672V42.443a1.919,1.919,0,0,1,1.943-1.943h2.49v.729h-2.49a1.129,1.129,0,0,0-1.093,1.093V45.3a1.827,1.827,0,0,0,1.822,1.822h1.761v.729Z" transform="translate(-220.51 -29.872)" fill="#0e1e24"/>
      <path id="Path_83" data-name="Path 83" d="M305.244,49.184H303.6a2,2,0,0,1-2-2.065V45.3a1.426,1.426,0,0,1,1.458-1.4h.972a1.39,1.39,0,0,1,1.458,1.4,1.493,1.493,0,0,1-1.154,1.4l-1.883.486v.061a1.207,1.207,0,0,0,1.154,1.215h1.64Zm-2.854-2.733,1.7-.425a.614.614,0,0,0,.486-.668.665.665,0,0,0-.607-.668H303a.624.624,0,0,0-.607.668v1.093Z" transform="translate(-223.926 -31.207)" fill="#0e1e24"/>
      <path id="Path_84" data-name="Path 84" d="M310.45,49.184h-.85V43.9h.547l.3.486a1.7,1.7,0,0,1,1.215-.486h.425a1.426,1.426,0,0,1,1.458,1.4v3.826h-.85V45.175a.609.609,0,0,0-.607-.607h-.425a1.218,1.218,0,0,0-1.215,1.215Z" transform="translate(-227.068 -31.207)" fill="#0e1e24"/>
      <path id="Path_85" data-name="Path 85" d="M320.065,47.12v.729h-.607a1.39,1.39,0,0,1-1.458-1.4V40.5h.85v2.126h1.275v.729H318.85v3.1a.665.665,0,0,0,.607.668Z" transform="translate(-230.366 -29.872)" fill="#0e1e24"/>
      <path id="Path_86" data-name="Path 86" d="M326.544,49.184H324.9a2,2,0,0,1-2-2.065V45.3a1.426,1.426,0,0,1,1.458-1.4h.972a1.389,1.389,0,0,1,1.457,1.4,1.493,1.493,0,0,1-1.154,1.4l-1.883.486v.061a1.207,1.207,0,0,0,1.154,1.215h1.64Zm-2.854-2.733,1.7-.425a.614.614,0,0,0,.486-.668.665.665,0,0,0-.607-.668H324.3a.624.624,0,0,0-.607.668v1.093Z" transform="translate(-232.291 -31.207)" fill="#0e1e24"/>
      <path id="Path_87" data-name="Path 87" d="M330.9,43.9h.547l.3.486A1.555,1.555,0,0,1,332.9,43.9h1.275v.729H332.9a1.153,1.153,0,0,0-1.154,1.154v3.4h-.85Z" transform="translate(-235.432 -31.207)" fill="#0e1e24"/>
    </g>
  </g>
</svg>
