<svg id="Layer_1" data-name="Layer 1" xmlns="http://www.w3.org/2000/svg" xmlns:xlink="http://www.w3.org/1999/xlink" viewBox="0 0 526.6 255.5"><defs><style>.cls-1{fill:none;}.cls-2{clip-path:url(#clip-path);}.cls-3{fill:#fff;}.cls-4{fill:#dcddde;}.cls-5{fill:#9d9fa2;}.cls-6{fill:#f7941d;}.cls-7{fill:#ffc20e;}.cls-8{fill:#8dc63f;}.cls-9{fill:#cbdb2a;}</style><clipPath id="clip-path" transform="translate(-31.49 -39.05)"><rect class="cls-1" width="593.81" height="318.98"/></clipPath></defs><g class="cls-2"><g class="cls-2"><path class="cls-3" d="M31.49,213.45,37.08,207c12.66,11.68,24.34,17.1,41.28,17.1,17.27,0,29.11-9.7,29.11-22.86V201c0-12.17-6.42-19.25-32.56-24.51-27.63-5.59-38.81-15-38.81-32.39v-.33c0-17.11,15.62-30.26,37-30.26,16.77,0,27.79,4.6,39.46,14l-5.42,6.74c-10.86-9.37-21.71-13-34.37-13-16.94,0-28.12,9.7-28.12,21.71v.32c0,12.17,6.25,19.57,33.54,25.16,26.64,5.43,37.83,15,37.83,31.74v.33c0,18.58-16,31.41-38.15,31.41-18.42,0-32.57-6.08-46.38-18.42" transform="translate(-31.49 -39.05)"/><path class="cls-3" d="M132.31,115.11h41.77c25.33,0,42.76,13,42.76,35.2v.32c0,24.18-20.89,36.68-44.9,36.68H140.86v42.92h-8.55Zm40.13,64.3c21.37,0,35.85-11.18,35.85-28.28v-.33c0-18.26-14.15-27.79-34.87-27.79H140.86v56.4Z" transform="translate(-31.49 -39.05)"/><polygon class="cls-3" points="337.91 97 346.46 92.12 346.46 151.71 419.81 76.06 431.48 76.06 381.16 126.88 433.62 191.18 422.44 191.18 375.08 132.96 346.46 161.91 346.46 191.18 337.91 191.18 337.91 97"/><polygon class="cls-3" points="443.88 76.06 525.77 76.06 525.77 83.96 452.43 83.96 452.43 129.18 518.37 129.18 518.37 137.07 452.43 137.07 452.43 183.28 526.6 183.28 526.6 191.18 443.88 191.18 443.88 76.06"/><polygon class="cls-4" points="307.11 106.63 304.35 102.16 264.25 126.97 285.56 81.68 280.81 79.44 259.27 125.2 252.2 84.28 247.03 85.17 253.94 125.2 230.67 98.94 226.74 102.43 255.9 135.33 279.09 182.84 283.81 180.54 261.51 134.84 307.11 106.63"/><polygon class="cls-5" points="240.64 32.82 239.3 30.56 188.16 60.96 190.84 65.48 192.63 64.42 226.75 102.44 230.66 98.93 197.23 61.68 238.71 37.02 247.03 85.17 252.2 84.28 243.23 32.37 240.64 32.82"/><polygon class="cls-5" points="313.62 24.11 362.2 66.37 304.35 102.16 307.11 106.63 371.03 67.09 314.45 17.87 312.72 19.86 310.35 18.73 278.88 85.33 283.63 87.57 313.62 24.11"/><polygon class="cls-5" points="283.83 180.57 279.08 182.81 295.06 216.62 264.44 241.03 267.71 245.14 299.51 219.78 349.66 232.67 350.97 227.58 299.84 214.45 283.83 180.57"/><path class="cls-6" d="M320.23,172.91a30.64,30.64,0,1,1-30.64-30.65,30.64,30.64,0,0,1,30.64,30.65h0" transform="translate(-31.49 -39.05)"/><path class="cls-3" d="M289.59,109.87A63,63,0,0,0,241.91,214.1l-.07.08L216.26,246a12.25,12.25,0,1,0,19.1,15.36l25.58-31.79.26-.37a63,63,0,1,0,28.39-119.31m0,106.81a43.78,43.78,0,1,1,43.78-43.78h0a43.83,43.83,0,0,1-43.78,43.77" transform="translate(-31.49 -39.05)"/><path class="cls-7" d="M290.63,271.85a12.41,12.41,0,1,0,17.23,3.35h0a12.41,12.41,0,0,0-17.22-3.34" transform="translate(-31.49 -39.05)"/><path class="cls-3" d="M289.59,129.13a43.78,43.78,0,1,1-43.77,43.79h0a43.83,43.83,0,0,1,43.77-43.78m0-19.26a63,63,0,1,0,63,63h0a63,63,0,0,0-63-63" transform="translate(-31.49 -39.05)"/><path class="cls-6" d="M348,78.4a19.85,19.85,0,1,1,15.75-23.24A19.85,19.85,0,0,1,348,78.4h0" transform="translate(-31.49 -39.05)"/><rect class="cls-8" x="225.39" y="17.56" width="30.52" height="30.52"/><rect class="cls-9" x="354.41" y="54.52" width="24.41" height="24.41"/><polygon class="cls-7" points="192.91 42.4 177.32 69.4 208.49 69.4 192.91 42.4"/><polygon class="cls-6" points="350.32 212.12 334.73 239.12 365.91 239.12 350.32 212.12"/><polygon class="cls-9" points="307.15 202.63 290.65 202.63 282.4 216.92 290.65 231.2 307.15 231.2 315.4 216.92 307.15 202.63"/></g></g></svg>