<svg id="Layer_1" data-name="Layer 1" xmlns="http://www.w3.org/2000/svg" xmlns:xlink="http://www.w3.org/1999/xlink" viewBox="0 0 593.81 318.98"><defs><style>.cls-1{fill:none;}.cls-2{clip-path:url(#clip-path);}.cls-3{fill:#dcddde;}.cls-4{fill:#9d9fa2;}.cls-5{fill:#f7941d;}.cls-6{fill:#ffc20e;}.cls-7{fill:#010101;}.cls-8{fill:#8dc63f;}.cls-9{fill:#cbdb2a;}</style><clipPath id="clip-path"><rect class="cls-1" width="593.81" height="318.98"/></clipPath></defs><g class="cls-2"><g class="cls-2"><path d="M31.49,213.45,37.08,207c12.66,11.68,24.34,17.1,41.28,17.1,17.27,0,29.11-9.7,29.11-22.86V201c0-12.17-6.42-19.25-32.56-24.51-27.63-5.59-38.81-15-38.81-32.39v-.33c0-17.11,15.62-30.26,37-30.26,16.77,0,27.79,4.6,39.46,14l-5.42,6.74c-10.86-9.37-21.71-13-34.37-13-16.94,0-28.12,9.7-28.12,21.71v.32c0,12.17,6.25,19.57,33.54,25.16,26.64,5.43,37.83,15,37.83,31.74v.33c0,18.58-16,31.41-38.15,31.41-18.42,0-32.57-6.08-46.38-18.42"/><path d="M132.31,115.11h41.77c25.33,0,42.76,13,42.76,35.2v.32c0,24.18-20.89,36.68-44.9,36.68H140.86v42.92h-8.55Zm40.13,64.3c21.37,0,35.85-11.18,35.85-28.28v-.33c0-18.26-14.15-27.79-34.87-27.79H140.86v56.4Z"/><polygon points="369.4 136.05 377.95 131.17 377.95 190.76 451.3 115.11 462.97 115.11 412.65 165.93 465.11 230.23 453.93 230.23 406.57 172.01 377.95 200.96 377.95 230.23 369.4 230.23 369.4 136.05"/><polygon points="475.37 115.11 557.26 115.11 557.26 123.01 483.92 123.01 483.92 168.23 549.86 168.23 549.86 176.12 483.92 176.12 483.92 222.33 558.09 222.33 558.09 230.23 475.37 230.23 475.37 115.11"/><polygon class="cls-3" points="338.6 145.68 335.84 141.21 295.74 166.02 317.05 120.73 312.3 118.49 290.76 164.25 283.69 123.33 278.52 124.22 285.43 164.25 262.16 137.99 258.23 141.48 287.39 174.38 310.58 221.89 315.3 219.59 293 173.89 338.6 145.68"/><polygon class="cls-4" points="272.13 71.87 270.79 69.61 219.65 100.01 222.33 104.53 224.12 103.47 258.24 141.49 262.15 137.98 228.72 100.73 270.2 76.07 278.52 124.22 283.69 123.33 274.72 71.42 272.13 71.87"/><polygon class="cls-4" points="345.11 63.16 393.69 105.42 335.84 141.21 338.6 145.68 402.52 106.14 345.94 56.92 344.21 58.91 341.84 57.78 310.37 124.38 315.12 126.62 345.11 63.16"/><polygon class="cls-4" points="315.32 219.62 310.57 221.86 326.55 255.67 295.93 280.08 299.2 284.19 331 258.83 381.15 271.72 382.46 266.63 331.33 253.5 315.32 219.62"/><path class="cls-5" d="M320.23,172.91a30.64,30.64,0,1,1-30.64-30.65,30.64,30.64,0,0,1,30.64,30.65"/><path d="M289.59,109.87A63,63,0,0,0,241.91,214.1l-.07.08L216.26,246a12.25,12.25,0,1,0,19.1,15.36l25.58-31.79.26-.37a63,63,0,1,0,28.39-119.31m0,106.81a43.78,43.78,0,1,1,43.78-43.77,43.83,43.83,0,0,1-43.78,43.77"/><path class="cls-6" d="M290.63,271.85a12.41,12.41,0,1,0,17.22,3.34,12.41,12.41,0,0,0-17.22-3.34"/><path class="cls-7" d="M289.59,129.13a43.78,43.78,0,1,1-43.77,43.78,43.83,43.83,0,0,1,43.77-43.78m0-19.26a63,63,0,1,0,63,63,63,63,0,0,0-63-63"/><path class="cls-5" d="M348,78.4a19.85,19.85,0,1,1,15.75-23.24A19.85,19.85,0,0,1,348,78.4"/><rect class="cls-8" x="256.88" y="56.61" width="30.52" height="30.52"/><rect class="cls-9" x="385.9" y="93.57" width="24.41" height="24.41"/><polygon class="cls-6" points="224.4 81.45 208.81 108.45 239.98 108.45 224.4 81.45"/><polygon class="cls-5" points="381.81 251.17 366.22 278.17 397.4 278.17 381.81 251.17"/><polygon class="cls-9" points="338.64 241.68 322.14 241.68 313.89 255.97 322.14 270.25 338.64 270.25 346.89 255.97 338.64 241.68"/></g></g></svg>