<svg id="Layer_1" data-name="Layer 1" xmlns="http://www.w3.org/2000/svg" viewBox="0 0 1262.07 606.1"><defs><style>.cls-1{fill:#fff;}.cls-2{fill:#052049;}</style></defs><path class="cls-1" d="M635.1,469.33a15.07,15.07,0,0,0-.41,2.58c.42,19.35,3.72,38.09,12.32,55.62,15.8,32.19,42.14,52.52,75.1,64.3,47.55,17,96.28,18,145.26,7.22,35.64-7.83,65.07-25.88,86.17-56.31,10.81-15.62,16.81-33.09,19.89-51.84V599.23h90.21V429.47h172V359.56H1229c-53.17,0-106.35-.06-159.52.11-4.85,0-6.11-1.39-6.08-6.15.22-27.67.11-55.34.11-83,0-6.41,0-6.42,6.6-6.42h192V188.88H973.13V460.6c-3.71-29-15.45-53.37-39.61-70.73-14.51-10.43-30.79-17.43-48-21.86-34.16-8.78-68.57-16.58-102.76-25.26a355.07,355.07,0,0,1-38.52-12.06c-11.93-4.52-20.45-13-23.25-26.09-4.44-20.78,5.12-40.3,26.28-49.6,31.61-13.91,63.92-13.1,95.67-.24,18.55,7.51,29.68,22,33.89,41.64.79,3.69,1.23,7.46,1.84,11.27h81.42c0-1.28,0-2.25,0-3.2-1.24-21.92-6.12-42.83-17.5-61.85-16.51-27.62-41.56-44.87-71-55.57-48.74-17.69-98.25-16.87-147.06-.74-37.34,12.34-63.42,37.79-76.77,75.23-3.46,9.69-5.15,20-8.42,29.75C630,319.29,613,340.63,584,350c-38.64,12.42-100.58,5.82-127.57-55.85-22.54-51.48-21.86-104.28-.37-155.93,21.75-52.29,70.54-69,115.8-60.22,31.4,6.09,54.5,24,66.68,54.34,2,4.87,3,10.1,4.5,15.23H729.4a3.77,3.77,0,0,0,.3-1.14C720.78,81.63,686.37,36.62,625.28,12.8,596.09,1.42,565.58-1.63,534.42.73,505,3,477,10.26,451.16,24.8c-46.29,26.09-75,66.07-89.83,116.33-4.6,15.55-7.14,31.7-10.46,46.82V10.24H260.36v6.88q0,122.26-.1,244.52A250.06,250.06,0,0,1,258,296c-4.31,30.6-20.65,48.81-49.66,55.46a141.79,141.79,0,0,1-63.95.15c-26.63-6.09-44.18-22.32-50.06-49.16a189.11,189.11,0,0,1-4.05-39.63c-.36-82.17-.18-164.34-.18-246.51V10.14H.05v5.19c0,83-.2,166,.19,249A260.94,260.94,0,0,0,4.38,311c10,53.27,39.88,90.64,92,107.77,50.3,16.52,101.48,16.63,152.06,1.65,51.3-15.18,83.44-49.77,96.35-101.88,5.46-22,6.21-44.48,6-67,0-1.17-.06-2.34,0-3.5s.29-2.19.56-4.11c10.57,78.3,43.94,141,119.57,170.93,72.68,28.75,142.92,21.93,206.17-28.41,11,8.9,24,14.47,37.36,19.29,30.64,11,62.58,17,94.24,24.05,20,4.45,40.07,8.59,58.63,17.71,21.52,10.5,29,28.86,21.22,51.5-5.73,16.68-18.59,25.9-34.51,30.6-29.84,8.81-60.14,9.45-90.23,1.25-23.85-6.5-39-22-44.73-46.35-1.17-5-2.22-10-3.37-15.22Z" transform="translate(0 0.01)"/><path class="cls-2" d="M635.1,469.33h80.61c1.15,5.2,2.2,10.22,3.37,15.22,5.68,24.34,20.88,39.85,44.73,46.35,30.09,8.2,60.39,7.56,90.23-1.25,15.92-4.7,28.78-13.92,34.51-30.6,7.79-22.68.29-41-21.2-51.56-18.56-9.12-38.64-13.26-58.63-17.71-31.66-7-63.6-13-94.24-24-13.35-4.82-26.34-10.39-37.36-19.29C613.87,436.78,543.63,443.6,471,414.85c-75.63-29.92-109-92.63-119.57-170.93-.27,1.92-.48,3-.56,4.11s0,2.33,0,3.5c.2,22.53-.55,45-6,67-12.91,52.11-45.05,86.7-96.35,101.88-50.58,15-101.76,14.87-152.06-1.65-52.12-17.13-82-54.5-92-107.77A260.83,260.83,0,0,1,.27,264.32c-.39-83-.19-166-.19-249V10.13H90.17v6.18c0,82.17-.18,164.34.18,246.51a189.11,189.11,0,0,0,4.05,39.63c5.88,26.84,23.43,43.07,50.06,49.16a141.79,141.79,0,0,0,63.95-.15c29-6.65,45.35-24.86,49.66-55.46a249.68,249.68,0,0,0,2.24-34.35q.29-122.26.1-244.52V10.25h90.51V188c3.32-15.12,5.86-31.27,10.46-46.82C376.23,90.93,404.92,51,451.21,24.86,477,10.32,505,3,534.47.79c31.16-2.36,61.67.69,90.86,12.07,61.09,23.82,95.5,68.83,104.42,133.59a3.77,3.77,0,0,1-.3,1.14H643c-1.49-5.13-2.55-10.36-4.5-15.23C626.35,102,603.25,84.07,571.85,78c-45.26-8.78-94,7.93-115.8,60.22-21.49,51.65-22.17,104.45.37,155.93,27,61.67,88.93,68.27,127.57,55.85,29-9.33,46-30.65,55.39-58.67,3.27-9.76,5-20.06,8.42-29.75,13.35-37.44,39.43-62.89,76.77-75.23,48.81-16.13,98.32-17,147.06.74,29.45,10.7,54.5,28,71,55.57,11.38,19,16.26,39.93,17.5,61.85.06,1,0,1.92,0,3.2h-81.4c-.61-3.81-1.05-7.58-1.84-11.27-4.21-19.62-15.34-34.13-33.89-41.64-31.75-12.86-64.06-13.67-95.67.24-21.16,9.3-30.72,28.82-26.28,49.6,2.8,13.11,11.32,21.57,23.25,26.09a355.07,355.07,0,0,0,38.52,12.06c34.19,8.68,68.6,16.48,102.76,25.26,17.15,4.41,33.43,11.41,47.94,21.83,24.16,17.36,35.9,41.71,39.61,70.73V188.87H1262v75.22H1070c-6.59,0-6.6,0-6.6,6.42,0,27.67.11,55.34-.11,83,0,4.76,1.23,6.17,6.08,6.15,53.17-.17,106.35-.11,159.52-.11h6.68v69.91h-172V599.23H973.38V490.9c-3.08,18.75-9.08,36.22-19.89,51.84-21,30.43-50.48,48.48-86.12,56.27-49,10.75-97.71,9.77-145.26-7.22-33-11.78-59.3-32.11-75.1-64.3-8.6-17.53-11.9-36.27-12.32-55.62A15.46,15.46,0,0,1,635.1,469.33Z" transform="translate(0 0.01)"/></svg>